<?xml version="1.0" encoding="UTF-8" standalone="no"?>
<!DOCTYPE svg PUBLIC "-//W3C//DTD SVG 1.1//EN"
 "http://www.w3.org/Graphics/SVG/1.1/DTD/svg11.dtd">
<!-- Generated by graphviz version 2.40.1 (20161225.0304)
 -->
<!-- Title: g Pages: 1 -->
<svg width="811pt" height="521pt"
 viewBox="0.00 0.00 810.56 521.17" xmlns="http://www.w3.org/2000/svg" xmlns:xlink="http://www.w3.org/1999/xlink">
<g id="graph0" class="graph" transform="scale(1 1) rotate(0) translate(4 517.1693)">
<title>g</title>
<polygon fill="#ffffff" stroke="transparent" points="-4,4 -4,-517.1693 806.5625,-517.1693 806.5625,4 -4,4"/>
<!-- node0 -->
<g id="node1" class="node">
<title>node0</title>
<polygon fill="none" stroke="#000000" points="0,-407.5 0,-455.5 71.1016,-455.5 71.1016,-407.5 0,-407.5"/>
<text text-anchor="middle" x="35.5508" y="-438.7" font-family="Times,serif" font-size="16.00" fill="#000000">0x10ba8</text>
<polyline fill="none" stroke="#000000" points="0,-431.5 71.1016,-431.5 "/>
<text text-anchor="middle" x="35.5508" y="-414.7" font-family="Times,serif" font-size="16.00" fill="#000000"> </text>
</g>
<!-- node1 -->
<g id="node2" class="node">
<title>node1</title>
<polygon fill="none" stroke="#000000" points="107.1016,-405.5 107.1016,-501.5 196.8594,-501.5 196.8594,-405.5 107.1016,-405.5"/>
<text text-anchor="middle" x="151.9805" y="-484.7" font-family="Times,serif" font-size="16.00" fill="#000000">0xf7fc4380</text>
<polyline fill="none" stroke="#000000" points="107.1016,-477.5 196.8594,-477.5 "/>
<text text-anchor="middle" x="151.9805" y="-460.7" font-family="Times,serif" font-size="16.00" fill="#000000"> </text>
<polyline fill="none" stroke="#000000" points="107.1016,-453.5 196.8594,-453.5 "/>
<text text-anchor="middle" x="151.9805" y="-436.7" font-family="Times,serif" font-size="16.00" fill="#000000"> </text>
<polyline fill="none" stroke="#000000" points="107.1016,-429.5 196.8594,-429.5 "/>
<text text-anchor="middle" x="151.9805" y="-412.7" font-family="Times,serif" font-size="16.00" fill="#000000">&#45;1</text>
</g>
<!-- node0&#45;&gt;node1 -->
<g id="0" class="edge">
<title>node0:f0&#45;&gt;node1:f0</title>
<path fill="none" stroke="#000000" d="M71.1016,-443.5C92.8034,-443.5 85.2376,-475.6444 97.336,-486.1918"/>
<polygon fill="#000000" stroke="#000000" points="96.5073,-489.6064 107.1016,-489.5 98.7533,-482.9765 96.5073,-489.6064"/>
</g>
<!-- node2 -->
<g id="node3" class="node">
<title>node2</title>
<polygon fill="none" stroke="#000000" points="107.1016,-290.5 107.1016,-386.5 196.8594,-386.5 196.8594,-290.5 107.1016,-290.5"/>
<text text-anchor="middle" x="151.9805" y="-369.7" font-family="Times,serif" font-size="16.00" fill="#000000">0xf7fc44b8</text>
<polyline fill="none" stroke="#000000" points="107.1016,-362.5 196.8594,-362.5 "/>
<text text-anchor="middle" x="151.9805" y="-345.7" font-family="Times,serif" font-size="16.00" fill="#000000"> </text>
<polyline fill="none" stroke="#000000" points="107.1016,-338.5 196.8594,-338.5 "/>
<text text-anchor="middle" x="151.9805" y="-321.7" font-family="Times,serif" font-size="16.00" fill="#000000"> </text>
<polyline fill="none" stroke="#000000" points="107.1016,-314.5 196.8594,-314.5 "/>
<text text-anchor="middle" x="151.9805" y="-297.7" font-family="Times,serif" font-size="16.00" fill="#000000">2</text>
</g>
<!-- node0&#45;&gt;node2 -->
<g id="1" class="edge">
<title>node0:f1&#45;&gt;node2:f0</title>
<path fill="none" stroke="#000000" d="M71.1016,-419.5C92.512,-419.5 85.3856,-388.0544 97.4323,-377.7363"/>
<polygon fill="#000000" stroke="#000000" points="98.7295,-380.993 107.1016,-374.5 96.5077,-374.355 98.7295,-380.993"/>
</g>
<!-- node3 -->
<g id="node4" class="node">
<title>node3</title>
<polygon fill="none" stroke="#000000" points="610.1328,-430.5 610.1328,-502.5 802.5625,-502.5 802.5625,-430.5 610.1328,-430.5"/>
<text text-anchor="middle" x="706.3477" y="-485.7" font-family="Times,serif" font-size="16.00" fill="#000000">3.43322790286038071e&#45;06</text>
<polyline fill="none" stroke="#000000" points="610.1328,-478.5 802.5625,-478.5 "/>
<text text-anchor="middle" x="706.3477" y="-461.7" font-family="Times,serif" font-size="16.00" fill="#000000">44.79998779296875</text>
<polyline fill="none" stroke="#000000" points="610.1328,-454.5 802.5625,-454.5 "/>
<text text-anchor="middle" x="706.3477" y="-437.7" font-family="Times,serif" font-size="16.00" fill="#000000">0</text>
</g>
<!-- node1&#45;&gt;node3 -->
<g id="2" class="edge">
<title>node1:f0&#45;&gt;node3:f0</title>
<path fill="none" stroke="#000000" d="M196.8594,-489.5C214.951,-489.5 215.2984,-504.1502 232.8594,-508.5 271.5815,-518.0914 282.7327,-509.2926 322.6172,-508.5 434.4681,-506.2773 463.1832,-512.8445 574.1328,-498.5 586.5211,-496.8983 591.4647,-493.13 600.3062,-491.3986"/>
<polygon fill="#000000" stroke="#000000" points="600.6995,-494.8775 610.3477,-490.5 600.0755,-487.9053 600.6995,-494.8775"/>
</g>
<!-- node4 -->
<g id="node5" class="node">
<title>node4</title>
<polygon fill="none" stroke="#000000" points="232.8594,-381.5 232.8594,-477.5 322.6172,-477.5 322.6172,-381.5 232.8594,-381.5"/>
<text text-anchor="middle" x="277.7383" y="-460.7" font-family="Times,serif" font-size="16.00" fill="#000000">0xf7fc4380</text>
<polyline fill="none" stroke="#000000" points="232.8594,-453.5 322.6172,-453.5 "/>
<text text-anchor="middle" x="277.7383" y="-436.7" font-family="Times,serif" font-size="16.00" fill="#000000"> </text>
<polyline fill="none" stroke="#000000" points="232.8594,-429.5 322.6172,-429.5 "/>
<text text-anchor="middle" x="277.7383" y="-412.7" font-family="Times,serif" font-size="16.00" fill="#000000"> </text>
<polyline fill="none" stroke="#000000" points="232.8594,-405.5 322.6172,-405.5 "/>
<text text-anchor="middle" x="277.7383" y="-388.7" font-family="Times,serif" font-size="16.00" fill="#000000">2</text>
</g>
<!-- node1&#45;&gt;node4 -->
<g id="3" class="edge">
<title>node1:f1&#45;&gt;node4:f0</title>
<path fill="none" stroke="#000000" d="M196.8594,-465.5C208.8594,-465.5 214.1094,-465.5 222.7344,-465.5"/>
<polygon fill="#000000" stroke="#000000" points="222.8594,-469.0001 232.8594,-465.5 222.8593,-462.0001 222.8594,-469.0001"/>
</g>
<!-- node5 -->
<g id="node6" class="node">
<title>node5</title>
<polygon fill="none" stroke="#000000" points="250.7383,-63.5 250.7383,-159.5 304.7383,-159.5 304.7383,-63.5 250.7383,-63.5"/>
<text text-anchor="middle" x="277.7383" y="-142.7" font-family="Times,serif" font-size="16.00" fill="#000000">(nil)</text>
<polyline fill="none" stroke="#000000" points="250.7383,-135.5 304.7383,-135.5 "/>
<text text-anchor="middle" x="277.7383" y="-118.7" font-family="Times,serif" font-size="16.00" fill="#000000"> </text>
<polyline fill="none" stroke="#000000" points="250.7383,-111.5 304.7383,-111.5 "/>
<text text-anchor="middle" x="277.7383" y="-94.7" font-family="Times,serif" font-size="16.00" fill="#000000"> </text>
<polyline fill="none" stroke="#000000" points="250.7383,-87.5 304.7383,-87.5 "/>
<text text-anchor="middle" x="277.7383" y="-70.7" font-family="Times,serif" font-size="16.00" fill="#000000">&#45;1</text>
</g>
<!-- node1&#45;&gt;node5 -->
<g id="4" class="edge">
<title>node1:f2&#45;&gt;node5:f0</title>
<path fill="none" stroke="#000000" d="M196.8594,-441.5C256.7296,-441.5 194.6976,-220.6316 232.8594,-174.5 243.018,-162.2198 263.553,-172.0152 272.9038,-168.3275"/>
<polygon fill="#000000" stroke="#000000" points="276.0046,-169.952 277.7383,-159.5 269.865,-166.5896 276.0046,-169.952"/>
</g>
<!-- node4&#45;&gt;node3 -->
<g id="5" class="edge">
<title>node4:f0&#45;&gt;node3:f0</title>
<path fill="none" stroke="#000000" d="M322.6172,-465.5C447.4693,-465.5 480.2172,-489.1515 600.0324,-490.4449"/>
<polygon fill="#000000" stroke="#000000" points="600.3291,-493.9465 610.3477,-490.5 600.3665,-486.9466 600.3291,-493.9465"/>
</g>
<!-- node6 -->
<g id="node7" class="node">
<title>node6</title>
<polygon fill="none" stroke="#000000" points="358.6172,-357.5 358.6172,-453.5 448.375,-453.5 448.375,-357.5 358.6172,-357.5"/>
<text text-anchor="middle" x="403.4961" y="-436.7" font-family="Times,serif" font-size="16.00" fill="#000000">0xf7fc4380</text>
<polyline fill="none" stroke="#000000" points="358.6172,-429.5 448.375,-429.5 "/>
<text text-anchor="middle" x="403.4961" y="-412.7" font-family="Times,serif" font-size="16.00" fill="#000000"> </text>
<polyline fill="none" stroke="#000000" points="358.6172,-405.5 448.375,-405.5 "/>
<text text-anchor="middle" x="403.4961" y="-388.7" font-family="Times,serif" font-size="16.00" fill="#000000"> </text>
<polyline fill="none" stroke="#000000" points="358.6172,-381.5 448.375,-381.5 "/>
<text text-anchor="middle" x="403.4961" y="-364.7" font-family="Times,serif" font-size="16.00" fill="#000000">1</text>
</g>
<!-- node4&#45;&gt;node6 -->
<g id="6" class="edge">
<title>node4:f1&#45;&gt;node6:f0</title>
<path fill="none" stroke="#000000" d="M322.6172,-441.5C334.6172,-441.5 339.8672,-441.5 348.4922,-441.5"/>
<polygon fill="#000000" stroke="#000000" points="348.6172,-445.0001 358.6172,-441.5 348.6172,-438.0001 348.6172,-445.0001"/>
</g>
<!-- node10 -->
<g id="node11" class="node">
<title>node10</title>
<polygon fill="none" stroke="#000000" points="376.4961,-217.5 376.4961,-313.5 430.4961,-313.5 430.4961,-217.5 376.4961,-217.5"/>
<text text-anchor="middle" x="403.4961" y="-296.7" font-family="Times,serif" font-size="16.00" fill="#000000">(nil)</text>
<polyline fill="none" stroke="#000000" points="376.4961,-289.5 430.4961,-289.5 "/>
<text text-anchor="middle" x="403.4961" y="-272.7" font-family="Times,serif" font-size="16.00" fill="#000000"> </text>
<polyline fill="none" stroke="#000000" points="376.4961,-265.5 430.4961,-265.5 "/>
<text text-anchor="middle" x="403.4961" y="-248.7" font-family="Times,serif" font-size="16.00" fill="#000000"> </text>
<polyline fill="none" stroke="#000000" points="376.4961,-241.5 430.4961,-241.5 "/>
<text text-anchor="middle" x="403.4961" y="-224.7" font-family="Times,serif" font-size="16.00" fill="#000000">&#45;1</text>
</g>
<!-- node4&#45;&gt;node10 -->
<g id="7" class="edge">
<title>node4:f2&#45;&gt;node10:f0</title>
<path fill="none" stroke="#000000" d="M322.6172,-417.5C375.4656,-417.5 327.485,-317.239 366.1544,-303.1398"/>
<polygon fill="#000000" stroke="#000000" points="367.1676,-306.523 376.4961,-301.5 366.0713,-299.6093 367.1676,-306.523"/>
</g>
<!-- node6&#45;&gt;node3 -->
<g id="8" class="edge">
<title>node6:f0&#45;&gt;node3:f0</title>
<path fill="none" stroke="#000000" d="M448.375,-441.5C456.5276,-441.5 565.2764,-478.3487 600.1499,-488.1366"/>
<polygon fill="#000000" stroke="#000000" points="599.8156,-491.6519 610.3477,-490.5 601.3961,-484.8326 599.8156,-491.6519"/>
</g>
<!-- node7 -->
<g id="node8" class="node">
<title>node7</title>
<polygon fill="none" stroke="#000000" points="484.375,-345.5 484.375,-441.5 574.1328,-441.5 574.1328,-345.5 484.375,-345.5"/>
<text text-anchor="middle" x="529.2539" y="-424.7" font-family="Times,serif" font-size="16.00" fill="#000000">0xf7fc4380</text>
<polyline fill="none" stroke="#000000" points="484.375,-417.5 574.1328,-417.5 "/>
<text text-anchor="middle" x="529.2539" y="-400.7" font-family="Times,serif" font-size="16.00" fill="#000000"> </text>
<polyline fill="none" stroke="#000000" points="484.375,-393.5 574.1328,-393.5 "/>
<text text-anchor="middle" x="529.2539" y="-376.7" font-family="Times,serif" font-size="16.00" fill="#000000"> </text>
<polyline fill="none" stroke="#000000" points="484.375,-369.5 574.1328,-369.5 "/>
<text text-anchor="middle" x="529.2539" y="-352.7" font-family="Times,serif" font-size="16.00" fill="#000000">2</text>
</g>
<!-- node6&#45;&gt;node7 -->
<g id="9" class="edge">
<title>node6:f1&#45;&gt;node7:f0</title>
<path fill="none" stroke="#000000" d="M448.375,-417.5C461.1559,-417.5 465.5543,-424.3914 474.2749,-427.7294"/>
<polygon fill="#000000" stroke="#000000" points="473.9208,-431.2206 484.375,-429.5 475.1296,-424.3257 473.9208,-431.2206"/>
</g>
<!-- node9 -->
<g id="node10" class="node">
<title>node9</title>
<polygon fill="none" stroke="#000000" points="502.2539,-230.5 502.2539,-326.5 556.2539,-326.5 556.2539,-230.5 502.2539,-230.5"/>
<text text-anchor="middle" x="529.2539" y="-309.7" font-family="Times,serif" font-size="16.00" fill="#000000">(nil)</text>
<polyline fill="none" stroke="#000000" points="502.2539,-302.5 556.2539,-302.5 "/>
<text text-anchor="middle" x="529.2539" y="-285.7" font-family="Times,serif" font-size="16.00" fill="#000000"> </text>
<polyline fill="none" stroke="#000000" points="502.2539,-278.5 556.2539,-278.5 "/>
<text text-anchor="middle" x="529.2539" y="-261.7" font-family="Times,serif" font-size="16.00" fill="#000000"> </text>
<polyline fill="none" stroke="#000000" points="502.2539,-254.5 556.2539,-254.5 "/>
<text text-anchor="middle" x="529.2539" y="-237.7" font-family="Times,serif" font-size="16.00" fill="#000000">&#45;1</text>
</g>
<!-- node6&#45;&gt;node9 -->
<g id="10" class="edge">
<title>node6:f2&#45;&gt;node9:f0</title>
<path fill="none" stroke="#000000" d="M448.375,-393.5C486.8902,-393.5 464.9424,-328.6182 492.1207,-316.4528"/>
<polygon fill="#000000" stroke="#000000" points="493.0969,-319.8292 502.2539,-314.5 491.7722,-312.9557 493.0969,-319.8292"/>
</g>
<!-- node7&#45;&gt;node1 -->
<g id="12" class="edge">
<title>node7:f1&#45;&gt;node1:f0</title>
<path fill="none" stroke="#000000" d="M484.375,-405.5C454.0354,-405.5 473.3821,-446.3204 448.375,-463.5 358.5508,-525.208 312.0979,-491.6858 206.8878,-489.5996"/>
<polygon fill="#000000" stroke="#000000" points="206.8937,-486.0996 196.8594,-489.5 206.8241,-493.0993 206.8937,-486.0996"/>
</g>
<!-- node7&#45;&gt;node3 -->
<g id="11" class="edge">
<title>node7:f0&#45;&gt;node3:f0</title>
<path fill="none" stroke="#000000" d="M574.1328,-429.5C601.4744,-429.5 584.9192,-475.3729 600.6007,-487.5578"/>
<polygon fill="#000000" stroke="#000000" points="599.7628,-490.9608 610.3477,-490.5 601.7857,-484.2595 599.7628,-490.9608"/>
</g>
<!-- node8 -->
<g id="node9" class="node">
<title>node8</title>
<polygon fill="none" stroke="#000000" points="679.3477,-297.5 679.3477,-393.5 733.3477,-393.5 733.3477,-297.5 679.3477,-297.5"/>
<text text-anchor="middle" x="706.3477" y="-376.7" font-family="Times,serif" font-size="16.00" fill="#000000">(nil)</text>
<polyline fill="none" stroke="#000000" points="679.3477,-369.5 733.3477,-369.5 "/>
<text text-anchor="middle" x="706.3477" y="-352.7" font-family="Times,serif" font-size="16.00" fill="#000000"> </text>
<polyline fill="none" stroke="#000000" points="679.3477,-345.5 733.3477,-345.5 "/>
<text text-anchor="middle" x="706.3477" y="-328.7" font-family="Times,serif" font-size="16.00" fill="#000000"> </text>
<polyline fill="none" stroke="#000000" points="679.3477,-321.5 733.3477,-321.5 "/>
<text text-anchor="middle" x="706.3477" y="-304.7" font-family="Times,serif" font-size="16.00" fill="#000000">&#45;1</text>
</g>
<!-- node7&#45;&gt;node8 -->
<g id="13" class="edge">
<title>node7:f2&#45;&gt;node8:f0</title>
<path fill="none" stroke="#000000" d="M574.1328,-381.5C617.2417,-381.5 630.5448,-381.5 668.9965,-381.5"/>
<polygon fill="#000000" stroke="#000000" points="669.3477,-385.0001 679.3477,-381.5 669.3476,-378.0001 669.3477,-385.0001"/>
</g>
<!-- node11 -->
<g id="node12" class="node">
<title>node11</title>
<polygon fill="none" stroke="#000000" points="502.2539,-115.5 502.2539,-211.5 556.2539,-211.5 556.2539,-115.5 502.2539,-115.5"/>
<text text-anchor="middle" x="529.2539" y="-194.7" font-family="Times,serif" font-size="16.00" fill="#000000">(nil)</text>
<polyline fill="none" stroke="#000000" points="502.2539,-187.5 556.2539,-187.5 "/>
<text text-anchor="middle" x="529.2539" y="-170.7" font-family="Times,serif" font-size="16.00" fill="#000000"> </text>
<polyline fill="none" stroke="#000000" points="502.2539,-163.5 556.2539,-163.5 "/>
<text text-anchor="middle" x="529.2539" y="-146.7" font-family="Times,serif" font-size="16.00" fill="#000000"> </text>
<polyline fill="none" stroke="#000000" points="502.2539,-139.5 556.2539,-139.5 "/>
<text text-anchor="middle" x="529.2539" y="-122.7" font-family="Times,serif" font-size="16.00" fill="#000000">&#45;1</text>
</g>
<!-- node10&#45;&gt;node11 -->
<g id="14" class="edge">
<title>node10:f1&#45;&gt;node11:f0</title>
<path fill="none" stroke="#000000" d="M430.4961,-277.5C473.7372,-277.5 458.3643,-211.772 491.989,-200.9885"/>
<polygon fill="#000000" stroke="#000000" points="492.8597,-204.3989 502.2539,-199.5 491.8551,-197.4714 492.8597,-204.3989"/>
</g>
<!-- node12 -->
<g id="node13" class="node">
<title>node12</title>
<polygon fill="none" stroke="#000000" points="484.8242,-.5 484.8242,-96.5 573.6836,-96.5 573.6836,-.5 484.8242,-.5"/>
<text text-anchor="middle" x="529.2539" y="-79.7" font-family="Times,serif" font-size="16.00" fill="#000000">0xf7fc43e0</text>
<polyline fill="none" stroke="#000000" points="484.8242,-72.5 573.6836,-72.5 "/>
<text text-anchor="middle" x="529.2539" y="-55.7" font-family="Times,serif" font-size="16.00" fill="#000000"> </text>
<polyline fill="none" stroke="#000000" points="484.8242,-48.5 573.6836,-48.5 "/>
<text text-anchor="middle" x="529.2539" y="-31.7" font-family="Times,serif" font-size="16.00" fill="#000000"> </text>
<polyline fill="none" stroke="#000000" points="484.8242,-24.5 573.6836,-24.5 "/>
<text text-anchor="middle" x="529.2539" y="-7.7" font-family="Times,serif" font-size="16.00" fill="#000000">1</text>
</g>
<!-- node10&#45;&gt;node12 -->
<g id="15" class="edge">
<title>node10:f2&#45;&gt;node12:f0</title>
<path fill="none" stroke="#000000" d="M430.4961,-253.5C505.5963,-253.5 415.9378,-100.601 474.9483,-85.6694"/>
<polygon fill="#000000" stroke="#000000" points="475.7123,-89.1053 485.2539,-84.5 474.923,-82.1499 475.7123,-89.1053"/>
</g>
<!-- node11&#45;&gt;node1 -->
<g id="16" class="edge">
<title>node11:f2&#45;&gt;node1:f0</title>
<path fill="none" stroke="#000000" d="M502.2539,-151.5C347.3891,-151.5 303.8692,-234.8748 232.8594,-372.5 209.6668,-417.4499 245.5065,-479.9464 206.9434,-488.5127"/>
<polygon fill="#000000" stroke="#000000" points="206.4707,-485.0422 196.8594,-489.5 207.1529,-492.0089 206.4707,-485.0422"/>
</g>
</g>
</svg>
