<?xml version="1.0" encoding="UTF-8" standalone="no"?>
<!DOCTYPE svg PUBLIC "-//W3C//DTD SVG 1.1//EN"
 "http://www.w3.org/Graphics/SVG/1.1/DTD/svg11.dtd">
<!-- Generated by graphviz version 2.40.1 (20161225.0304)
 -->
<!-- Title: unix Pages: 1 -->
<svg width="432pt" height="345pt"
 viewBox="0.00 0.00 432.00 344.88" xmlns="http://www.w3.org/2000/svg" xmlns:xlink="http://www.w3.org/1999/xlink">
<g id="graph0" class="graph" transform="scale(.4514 .4514) rotate(0) translate(4 760)">
<title>unix</title>
<polygon fill="#ffffff" stroke="transparent" points="-4,4 -4,-760 953.0071,-760 953.0071,4 -4,4"/>
<!-- 5th Edition -->
<g id="node1" class="node">
<title>5th Edition</title>
<ellipse fill="#b2dfee" stroke="#b2dfee" cx="505.7783" cy="-738" rx="49.8131" ry="18"/>
<text text-anchor="middle" x="505.7783" y="-733.8" font-family="Times,serif" font-size="14.00" fill="#000000">5th Edition</text>
</g>
<!-- 6th Edition -->
<g id="node2" class="node">
<title>6th Edition</title>
<ellipse fill="#b2dfee" stroke="#b2dfee" cx="412.7783" cy="-666" rx="49.8131" ry="18"/>
<text text-anchor="middle" x="412.7783" y="-661.8" font-family="Times,serif" font-size="14.00" fill="#000000">6th Edition</text>
</g>
<!-- 5th Edition&#45;&gt;6th Edition -->
<g id="edge1" class="edge">
<title>5th Edition&#45;&gt;6th Edition</title>
<path fill="none" stroke="#000000" d="M484.6751,-721.6621C472.1598,-711.9728 456.1038,-699.5424 442.3408,-688.8871"/>
<polygon fill="#000000" stroke="#000000" points="444.1697,-685.8767 434.1198,-682.5225 439.8845,-691.4118 444.1697,-685.8767"/>
</g>
<!-- PWB 1.0 -->
<g id="node3" class="node">
<title>PWB 1.0</title>
<ellipse fill="#b2dfee" stroke="#b2dfee" cx="658.7783" cy="-666" rx="42.5715" ry="18"/>
<text text-anchor="middle" x="658.7783" y="-661.8" font-family="Times,serif" font-size="14.00" fill="#000000">PWB 1.0</text>
</g>
<!-- 5th Edition&#45;&gt;PWB 1.0 -->
<g id="edge2" class="edge">
<title>5th Edition&#45;&gt;PWB 1.0</title>
<path fill="none" stroke="#000000" d="M536.3724,-723.6028C560.76,-712.1263 595.0248,-696.0016 621.1011,-683.7304"/>
<polygon fill="#000000" stroke="#000000" points="622.7463,-686.8245 630.3042,-679.3996 619.7657,-680.4907 622.7463,-686.8245"/>
</g>
<!-- LSX -->
<g id="node4" class="node">
<title>LSX</title>
<ellipse fill="#b2dfee" stroke="#b2dfee" cx="570.7783" cy="-594" rx="27" ry="18"/>
<text text-anchor="middle" x="570.7783" y="-589.8" font-family="Times,serif" font-size="14.00" fill="#000000">LSX</text>
</g>
<!-- 6th Edition&#45;&gt;LSX -->
<g id="edge3" class="edge">
<title>6th Edition&#45;&gt;LSX</title>
<path fill="none" stroke="#000000" d="M445.0734,-652.197C469.7738,-641.5216 504.6035,-626.2121 534.7783,-612 536.5325,-611.1738 538.3295,-610.3151 540.1392,-609.4409"/>
<polygon fill="#000000" stroke="#000000" points="541.7207,-612.5636 549.1567,-605.0166 538.6373,-606.2792 541.7207,-612.5636"/>
</g>
<!-- 1 BSD -->
<g id="node5" class="node">
<title>1 BSD</title>
<ellipse fill="#b2dfee" stroke="#b2dfee" cx="118.7783" cy="-594" rx="33.8855" ry="18"/>
<text text-anchor="middle" x="118.7783" y="-589.8" font-family="Times,serif" font-size="14.00" fill="#000000">1 BSD</text>
</g>
<!-- 6th Edition&#45;&gt;1 BSD -->
<g id="edge4" class="edge">
<title>6th Edition&#45;&gt;1 BSD</title>
<path fill="none" stroke="#000000" d="M371.5893,-655.9129C315.5017,-642.1772 215.6955,-617.7348 159.731,-604.0292"/>
<polygon fill="#000000" stroke="#000000" points="160.3574,-600.5793 149.8118,-601.6001 158.6922,-607.3784 160.3574,-600.5793"/>
</g>
<!-- Mini Unix -->
<g id="node6" class="node">
<title>Mini Unix</title>
<ellipse fill="#b2dfee" stroke="#b2dfee" cx="352.7783" cy="-594" rx="47.4081" ry="18"/>
<text text-anchor="middle" x="352.7783" y="-589.8" font-family="Times,serif" font-size="14.00" fill="#000000">Mini Unix</text>
</g>
<!-- 6th Edition&#45;&gt;Mini Unix -->
<g id="edge5" class="edge">
<title>6th Edition&#45;&gt;Mini Unix</title>
<path fill="none" stroke="#000000" d="M398.254,-648.5708C390.884,-639.7269 381.7982,-628.8239 373.6903,-619.0945"/>
<polygon fill="#000000" stroke="#000000" points="376.2595,-616.7103 367.1688,-611.2687 370.8819,-621.1916 376.2595,-616.7103"/>
</g>
<!-- Wollongong -->
<g id="node7" class="node">
<title>Wollongong</title>
<ellipse fill="#b2dfee" stroke="#b2dfee" cx="471.7783" cy="-594" rx="53.7322" ry="18"/>
<text text-anchor="middle" x="471.7783" y="-589.8" font-family="Times,serif" font-size="14.00" fill="#000000">Wollongong</text>
</g>
<!-- 6th Edition&#45;&gt;Wollongong -->
<g id="edge6" class="edge">
<title>6th Edition&#45;&gt;Wollongong</title>
<path fill="none" stroke="#000000" d="M427.0605,-648.5708C434.2543,-639.7919 443.1107,-628.9841 451.0387,-619.3093"/>
<polygon fill="#000000" stroke="#000000" points="453.792,-621.4714 457.4231,-611.5182 448.3776,-617.0347 453.792,-621.4714"/>
</g>
<!-- Interdata -->
<g id="node8" class="node">
<title>Interdata</title>
<ellipse fill="#b2dfee" stroke="#b2dfee" cx="245.7783" cy="-594" rx="41.5593" ry="18"/>
<text text-anchor="middle" x="245.7783" y="-589.8" font-family="Times,serif" font-size="14.00" fill="#000000">Interdata</text>
</g>
<!-- 6th Edition&#45;&gt;Interdata -->
<g id="edge7" class="edge">
<title>6th Edition&#45;&gt;Interdata</title>
<path fill="none" stroke="#000000" d="M380.579,-652.1177C353.2441,-640.3326 313.9336,-623.3843 284.8116,-610.8287"/>
<polygon fill="#000000" stroke="#000000" points="285.9267,-607.4981 275.358,-606.753 283.1552,-613.9261 285.9267,-607.4981"/>
</g>
<!-- PWB 1.2 -->
<g id="node28" class="node">
<title>PWB 1.2</title>
<ellipse fill="#b2dfee" stroke="#b2dfee" cx="658.7783" cy="-594" rx="42.5715" ry="18"/>
<text text-anchor="middle" x="658.7783" y="-589.8" font-family="Times,serif" font-size="14.00" fill="#000000">PWB 1.2</text>
</g>
<!-- PWB 1.0&#45;&gt;PWB 1.2 -->
<g id="edge31" class="edge">
<title>PWB 1.0&#45;&gt;PWB 1.2</title>
<path fill="none" stroke="#000000" d="M658.7783,-647.8314C658.7783,-640.131 658.7783,-630.9743 658.7783,-622.4166"/>
<polygon fill="#000000" stroke="#000000" points="662.2784,-622.4132 658.7783,-612.4133 655.2784,-622.4133 662.2784,-622.4132"/>
</g>
<!-- USG 1.0 -->
<g id="node29" class="node">
<title>USG 1.0</title>
<ellipse fill="#b2dfee" stroke="#b2dfee" cx="760.7783" cy="-594" rx="41.1266" ry="18"/>
<text text-anchor="middle" x="760.7783" y="-589.8" font-family="Times,serif" font-size="14.00" fill="#000000">USG 1.0</text>
</g>
<!-- PWB 1.0&#45;&gt;USG 1.0 -->
<g id="edge32" class="edge">
<title>PWB 1.0&#45;&gt;USG 1.0</title>
<path fill="none" stroke="#000000" d="M680.6598,-650.5542C695.1807,-640.3042 714.4377,-626.711 730.433,-615.4202"/>
<polygon fill="#000000" stroke="#000000" points="732.7816,-618.0465 738.9329,-609.4203 728.7448,-612.3277 732.7816,-618.0465"/>
</g>
<!-- 2 BSD -->
<g id="node19" class="node">
<title>2 BSD</title>
<ellipse fill="#b2dfee" stroke="#b2dfee" cx="75.7783" cy="-234" rx="33.8855" ry="18"/>
<text text-anchor="middle" x="75.7783" y="-229.8" font-family="Times,serif" font-size="14.00" fill="#000000">2 BSD</text>
</g>
<!-- 1 BSD&#45;&gt;2 BSD -->
<g id="edge19" class="edge">
<title>1 BSD&#45;&gt;2 BSD</title>
<path fill="none" stroke="#000000" d="M112.3551,-576.0816C103.275,-549.1057 87.7783,-496.2867 87.7783,-450 87.7783,-450 87.7783,-450 87.7783,-378 87.7783,-337.7369 83.0617,-291.3594 79.5425,-262.3596"/>
<polygon fill="#000000" stroke="#000000" points="82.979,-261.6332 78.2647,-252.145 76.0331,-262.5021 82.979,-261.6332"/>
</g>
<!-- Unix/TS 3.0 -->
<g id="node9" class="node">
<title>Unix/TS 3.0</title>
<ellipse fill="#b2dfee" stroke="#b2dfee" cx="596.7783" cy="-378" rx="53.6729" ry="18"/>
<text text-anchor="middle" x="596.7783" y="-373.8" font-family="Times,serif" font-size="14.00" fill="#000000">Unix/TS 3.0</text>
</g>
<!-- Interdata&#45;&gt;Unix/TS 3.0 -->
<g id="edge8" class="edge">
<title>Interdata&#45;&gt;Unix/TS 3.0</title>
<path fill="none" stroke="#000000" d="M269.9039,-579.1534C330.9505,-541.5863 491.7166,-442.6533 562.4955,-399.0971"/>
<polygon fill="#000000" stroke="#000000" points="564.3862,-402.0433 571.0684,-393.8214 560.7175,-396.0817 564.3862,-402.0433"/>
</g>
<!-- PWB 2.0 -->
<g id="node10" class="node">
<title>PWB 2.0</title>
<ellipse fill="#b2dfee" stroke="#b2dfee" cx="543.7783" cy="-522" rx="42.5715" ry="18"/>
<text text-anchor="middle" x="543.7783" y="-517.8" font-family="Times,serif" font-size="14.00" fill="#000000">PWB 2.0</text>
</g>
<!-- Interdata&#45;&gt;PWB 2.0 -->
<g id="edge9" class="edge">
<title>Interdata&#45;&gt;PWB 2.0</title>
<path fill="none" stroke="#000000" d="M277.101,-582.1037C283.5522,-579.892 290.3415,-577.7349 296.7783,-576 379.7637,-553.633 403.4308,-560.9775 486.7783,-540 491.3793,-538.842 496.1548,-537.5235 500.8959,-536.1388"/>
<polygon fill="#000000" stroke="#000000" points="501.9516,-539.4762 510.5121,-533.2337 499.9272,-532.7753 501.9516,-539.4762"/>
</g>
<!-- 7th Edition -->
<g id="node11" class="node">
<title>7th Edition</title>
<ellipse fill="#b2dfee" stroke="#b2dfee" cx="245.7783" cy="-522" rx="49.8131" ry="18"/>
<text text-anchor="middle" x="245.7783" y="-517.8" font-family="Times,serif" font-size="14.00" fill="#000000">7th Edition</text>
</g>
<!-- Interdata&#45;&gt;7th Edition -->
<g id="edge10" class="edge">
<title>Interdata&#45;&gt;7th Edition</title>
<path fill="none" stroke="#000000" d="M245.7783,-575.8314C245.7783,-568.131 245.7783,-558.9743 245.7783,-550.4166"/>
<polygon fill="#000000" stroke="#000000" points="249.2784,-550.4132 245.7783,-540.4133 242.2784,-550.4133 249.2784,-550.4132"/>
</g>
<!-- TS 4.0 -->
<g id="node38" class="node">
<title>TS 4.0</title>
<ellipse fill="#b2dfee" stroke="#b2dfee" cx="678.7783" cy="-234" rx="33.8857" ry="18"/>
<text text-anchor="middle" x="678.7783" y="-229.8" font-family="Times,serif" font-size="14.00" fill="#000000">TS 4.0</text>
</g>
<!-- Unix/TS 3.0&#45;&gt;TS 4.0 -->
<g id="edge44" class="edge">
<title>Unix/TS 3.0&#45;&gt;TS 4.0</title>
<path fill="none" stroke="#000000" d="M606.9978,-360.0535C621.3317,-334.8819 647.4938,-288.9386 663.9632,-260.0167"/>
<polygon fill="#000000" stroke="#000000" points="667.0356,-261.6943 668.9426,-251.2725 660.9527,-258.2304 667.0356,-261.6943"/>
</g>
<!-- PWB 2.0&#45;&gt;Unix/TS 3.0 -->
<g id="edge42" class="edge">
<title>PWB 2.0&#45;&gt;Unix/TS 3.0</title>
<path fill="none" stroke="#000000" d="M540.7987,-503.9823C538.5033,-485.2422 537.1462,-455.4234 546.7783,-432 551.4385,-420.6672 559.6245,-410.2467 568.0405,-401.6456"/>
<polygon fill="#000000" stroke="#000000" points="570.616,-404.0251 575.4127,-394.5782 565.7718,-398.972 570.616,-404.0251"/>
</g>
<!-- 8th Edition -->
<g id="node12" class="node">
<title>8th Edition</title>
<ellipse fill="#b2dfee" stroke="#b2dfee" cx="444.7783" cy="-162" rx="49.8131" ry="18"/>
<text text-anchor="middle" x="444.7783" y="-157.8" font-family="Times,serif" font-size="14.00" fill="#000000">8th Edition</text>
</g>
<!-- 7th Edition&#45;&gt;8th Edition -->
<g id="edge11" class="edge">
<title>7th Edition&#45;&gt;8th Edition</title>
<path fill="none" stroke="#000000" d="M289.6697,-513.2957C334.1582,-503.5902 398.7899,-486.769 415.7783,-468 443.2125,-437.6904 434.7783,-418.8816 434.7783,-378 434.7783,-378 434.7783,-378 434.7783,-306 434.7783,-265.7793 438.7088,-219.391 441.6414,-190.3773"/>
<polygon fill="#000000" stroke="#000000" points="445.151,-190.4662 442.7063,-180.1573 438.1887,-189.7407 445.151,-190.4662"/>
</g>
<!-- 32V -->
<g id="node13" class="node">
<title>32V</title>
<ellipse fill="#b2dfee" stroke="#b2dfee" cx="379.7783" cy="-450" rx="27" ry="18"/>
<text text-anchor="middle" x="379.7783" y="-445.8" font-family="Times,serif" font-size="14.00" fill="#000000">32V</text>
</g>
<!-- 7th Edition&#45;&gt;32V -->
<g id="edge12" class="edge">
<title>7th Edition&#45;&gt;32V</title>
<path fill="none" stroke="#000000" d="M273.8691,-506.9064C296.1279,-494.9465 327.1548,-478.2753 349.8729,-466.0686"/>
<polygon fill="#000000" stroke="#000000" points="351.5929,-469.1177 358.7452,-461.3013 348.2797,-462.9514 351.5929,-469.1177"/>
</g>
<!-- V7M -->
<g id="node14" class="node">
<title>V7M</title>
<ellipse fill="#b2dfee" stroke="#b2dfee" cx="28.7783" cy="-378" rx="28.5583" ry="18"/>
<text text-anchor="middle" x="28.7783" y="-373.8" font-family="Times,serif" font-size="14.00" fill="#000000">V7M</text>
</g>
<!-- 7th Edition&#45;&gt;V7M -->
<g id="edge13" class="edge">
<title>7th Edition&#45;&gt;V7M</title>
<path fill="none" stroke="#000000" d="M209.4141,-509.6553C184.2398,-500.2331 150.5753,-485.8467 123.7783,-468 95.3589,-449.0727 67.5653,-421.3493 49.4579,-401.6814"/>
<polygon fill="#000000" stroke="#000000" points="51.8566,-399.1161 42.5489,-394.0549 46.6689,-403.8158 51.8566,-399.1161"/>
</g>
<!-- Ultrix&#45;11 -->
<g id="node15" class="node">
<title>Ultrix&#45;11</title>
<ellipse fill="#b2dfee" stroke="#b2dfee" cx="105.7783" cy="-90" rx="42.8919" ry="18"/>
<text text-anchor="middle" x="105.7783" y="-85.8" font-family="Times,serif" font-size="14.00" fill="#000000">Ultrix&#45;11</text>
</g>
<!-- 7th Edition&#45;&gt;Ultrix&#45;11 -->
<g id="edge14" class="edge">
<title>7th Edition&#45;&gt;Ultrix&#45;11</title>
<path fill="none" stroke="#000000" d="M210.8696,-508.947C192.0612,-500.1603 170.0538,-486.7241 156.7783,-468 133.133,-434.6502 137.7783,-418.8816 137.7783,-378 137.7783,-378 137.7783,-378 137.7783,-234 137.7783,-192.7161 125.0896,-146.326 115.6923,-117.6304"/>
<polygon fill="#000000" stroke="#000000" points="118.9228,-116.2568 112.4087,-107.9012 112.2903,-118.4953 118.9228,-116.2568"/>
</g>
<!-- Xenix -->
<g id="node16" class="node">
<title>Xenix</title>
<ellipse fill="#b2dfee" stroke="#b2dfee" cx="197.7783" cy="-450" rx="31.9393" ry="18"/>
<text text-anchor="middle" x="197.7783" y="-445.8" font-family="Times,serif" font-size="14.00" fill="#000000">Xenix</text>
</g>
<!-- 7th Edition&#45;&gt;Xenix -->
<g id="edge15" class="edge">
<title>7th Edition&#45;&gt;Xenix</title>
<path fill="none" stroke="#000000" d="M233.9131,-504.2022C228.1317,-495.5301 221.0753,-484.9455 214.7376,-475.4389"/>
<polygon fill="#000000" stroke="#000000" points="217.6357,-473.4763 209.1764,-467.0972 211.8113,-477.3592 217.6357,-473.4763"/>
</g>
<!-- UniPlus+ -->
<g id="node17" class="node">
<title>UniPlus+</title>
<ellipse fill="#b2dfee" stroke="#b2dfee" cx="290.7783" cy="-450" rx="43.6962" ry="18"/>
<text text-anchor="middle" x="290.7783" y="-445.8" font-family="Times,serif" font-size="14.00" fill="#000000">UniPlus+</text>
</g>
<!-- 7th Edition&#45;&gt;UniPlus+ -->
<g id="edge16" class="edge">
<title>7th Edition&#45;&gt;UniPlus+</title>
<path fill="none" stroke="#000000" d="M256.9019,-504.2022C262.1878,-495.7448 268.6105,-485.4685 274.4364,-476.147"/>
<polygon fill="#000000" stroke="#000000" points="277.4506,-477.928 279.7826,-467.593 271.5146,-474.218 277.4506,-477.928"/>
</g>
<!-- 9th Edition -->
<g id="node18" class="node">
<title>9th Edition</title>
<ellipse fill="#b2dfee" stroke="#b2dfee" cx="518.7783" cy="-90" rx="49.8131" ry="18"/>
<text text-anchor="middle" x="518.7783" y="-85.8" font-family="Times,serif" font-size="14.00" fill="#000000">9th Edition</text>
</g>
<!-- 8th Edition&#45;&gt;9th Edition -->
<g id="edge18" class="edge">
<title>8th Edition&#45;&gt;9th Edition</title>
<path fill="none" stroke="#000000" d="M462.3152,-144.937C471.8075,-135.7013 483.6889,-124.141 494.1007,-114.0106"/>
<polygon fill="#000000" stroke="#000000" points="496.6407,-116.4226 501.3672,-106.9405 491.7592,-111.4055 496.6407,-116.4226"/>
</g>
<!-- 3 BSD -->
<g id="node22" class="node">
<title>3 BSD</title>
<ellipse fill="#b2dfee" stroke="#b2dfee" cx="369.7783" cy="-378" rx="33.8855" ry="18"/>
<text text-anchor="middle" x="369.7783" y="-373.8" font-family="Times,serif" font-size="14.00" fill="#000000">3 BSD</text>
</g>
<!-- 32V&#45;&gt;3 BSD -->
<g id="edge23" class="edge">
<title>32V&#45;&gt;3 BSD</title>
<path fill="none" stroke="#000000" d="M377.2549,-431.8314C376.1854,-424.131 374.9136,-414.9743 373.725,-406.4166"/>
<polygon fill="#000000" stroke="#000000" points="377.1782,-405.8367 372.3357,-396.4133 370.2447,-406.7997 377.1782,-405.8367"/>
</g>
<!-- V7M&#45;&gt;Ultrix&#45;11 -->
<g id="edge17" class="edge">
<title>V7M&#45;&gt;Ultrix&#45;11</title>
<path fill="none" stroke="#000000" d="M26.3258,-359.5835C22.8986,-329.0613 18.5738,-266.3637 32.7783,-216 43.4742,-178.0764 68.205,-139.6263 85.9165,-115.3478"/>
<polygon fill="#000000" stroke="#000000" points="88.9153,-117.1811 92.0852,-107.0716 83.3028,-112.9978 88.9153,-117.1811"/>
</g>
<!-- 2.8 BSD -->
<g id="node20" class="node">
<title>2.8 BSD</title>
<ellipse fill="#b2dfee" stroke="#b2dfee" cx="206.7783" cy="-162" rx="40.6508" ry="18"/>
<text text-anchor="middle" x="206.7783" y="-157.8" font-family="Times,serif" font-size="14.00" fill="#000000">2.8 BSD</text>
</g>
<!-- 2 BSD&#45;&gt;2.8 BSD -->
<g id="edge20" class="edge">
<title>2 BSD&#45;&gt;2.8 BSD</title>
<path fill="none" stroke="#000000" d="M99.5014,-220.9613C119.72,-209.8488 149.0534,-193.7266 171.9385,-181.1486"/>
<polygon fill="#000000" stroke="#000000" points="173.912,-184.0578 180.9897,-176.1739 170.5403,-177.9233 173.912,-184.0578"/>
</g>
<!-- 2.8 BSD&#45;&gt;Ultrix&#45;11 -->
<g id="edge21" class="edge">
<title>2.8 BSD&#45;&gt;Ultrix&#45;11</title>
<path fill="none" stroke="#000000" d="M184.8628,-146.3771C170.5687,-136.1873 151.7189,-122.7498 136.0077,-111.5497"/>
<polygon fill="#000000" stroke="#000000" points="137.8255,-108.5473 127.651,-105.5924 133.7621,-114.2472 137.8255,-108.5473"/>
</g>
<!-- 2.9 BSD -->
<g id="node21" class="node">
<title>2.9 BSD</title>
<ellipse fill="#b2dfee" stroke="#b2dfee" cx="206.7783" cy="-90" rx="40.6508" ry="18"/>
<text text-anchor="middle" x="206.7783" y="-85.8" font-family="Times,serif" font-size="14.00" fill="#000000">2.9 BSD</text>
</g>
<!-- 2.8 BSD&#45;&gt;2.9 BSD -->
<g id="edge22" class="edge">
<title>2.8 BSD&#45;&gt;2.9 BSD</title>
<path fill="none" stroke="#000000" d="M206.7783,-143.8314C206.7783,-136.131 206.7783,-126.9743 206.7783,-118.4166"/>
<polygon fill="#000000" stroke="#000000" points="210.2784,-118.4132 206.7783,-108.4133 203.2784,-118.4133 210.2784,-118.4132"/>
</g>
<!-- 4 BSD -->
<g id="node23" class="node">
<title>4 BSD</title>
<ellipse fill="#b2dfee" stroke="#b2dfee" cx="357.7783" cy="-306" rx="33.8855" ry="18"/>
<text text-anchor="middle" x="357.7783" y="-301.8" font-family="Times,serif" font-size="14.00" fill="#000000">4 BSD</text>
</g>
<!-- 3 BSD&#45;&gt;4 BSD -->
<g id="edge24" class="edge">
<title>3 BSD&#45;&gt;4 BSD</title>
<path fill="none" stroke="#000000" d="M366.7502,-359.8314C365.4668,-352.131 363.9407,-342.9743 362.5144,-334.4166"/>
<polygon fill="#000000" stroke="#000000" points="365.9436,-333.7018 360.8472,-324.4133 359.0388,-334.8526 365.9436,-333.7018"/>
</g>
<!-- 4.1 BSD -->
<g id="node24" class="node">
<title>4.1 BSD</title>
<ellipse fill="#b2dfee" stroke="#b2dfee" cx="355.7783" cy="-234" rx="40.6508" ry="18"/>
<text text-anchor="middle" x="355.7783" y="-229.8" font-family="Times,serif" font-size="14.00" fill="#000000">4.1 BSD</text>
</g>
<!-- 4 BSD&#45;&gt;4.1 BSD -->
<g id="edge25" class="edge">
<title>4 BSD&#45;&gt;4.1 BSD</title>
<path fill="none" stroke="#000000" d="M357.2736,-287.8314C357.0597,-280.131 356.8053,-270.9743 356.5676,-262.4166"/>
<polygon fill="#000000" stroke="#000000" points="360.0662,-262.3122 356.2898,-252.4133 353.0689,-262.5066 360.0662,-262.3122"/>
</g>
<!-- 4.1 BSD&#45;&gt;8th Edition -->
<g id="edge28" class="edge">
<title>4.1 BSD&#45;&gt;8th Edition</title>
<path fill="none" stroke="#000000" d="M375.5303,-218.0209C387.5745,-208.2772 403.1652,-195.6645 416.5029,-184.8745"/>
<polygon fill="#000000" stroke="#000000" points="418.8913,-187.4442 424.4645,-178.4336 414.4886,-182.0021 418.8913,-187.4442"/>
</g>
<!-- 4.1 BSD&#45;&gt;2.8 BSD -->
<g id="edge27" class="edge">
<title>4.1 BSD&#45;&gt;2.8 BSD</title>
<path fill="none" stroke="#000000" d="M328.1017,-220.6261C304.2662,-209.1082 269.6769,-192.394 243.5245,-179.7566"/>
<polygon fill="#000000" stroke="#000000" points="244.8333,-176.5018 234.3066,-175.3023 241.7877,-182.8046 244.8333,-176.5018"/>
</g>
<!-- 4.2 BSD -->
<g id="node25" class="node">
<title>4.2 BSD</title>
<ellipse fill="#b2dfee" stroke="#b2dfee" cx="336.7783" cy="-162" rx="40.6508" ry="18"/>
<text text-anchor="middle" x="336.7783" y="-157.8" font-family="Times,serif" font-size="14.00" fill="#000000">4.2 BSD</text>
</g>
<!-- 4.1 BSD&#45;&gt;4.2 BSD -->
<g id="edge26" class="edge">
<title>4.1 BSD&#45;&gt;4.2 BSD</title>
<path fill="none" stroke="#000000" d="M350.9838,-215.8314C348.8978,-207.9266 346.4069,-198.4872 344.0976,-189.7365"/>
<polygon fill="#000000" stroke="#000000" points="347.4412,-188.6894 341.5054,-179.9134 340.6729,-190.4755 347.4412,-188.6894"/>
</g>
<!-- 4.3 BSD -->
<g id="node26" class="node">
<title>4.3 BSD</title>
<ellipse fill="#b2dfee" stroke="#b2dfee" cx="410.7783" cy="-90" rx="40.6508" ry="18"/>
<text text-anchor="middle" x="410.7783" y="-85.8" font-family="Times,serif" font-size="14.00" fill="#000000">4.3 BSD</text>
</g>
<!-- 4.2 BSD&#45;&gt;4.3 BSD -->
<g id="edge29" class="edge">
<title>4.2 BSD&#45;&gt;4.3 BSD</title>
<path fill="none" stroke="#000000" d="M353.9414,-145.3008C363.5613,-135.9408 375.7213,-124.1095 386.3228,-113.7945"/>
<polygon fill="#000000" stroke="#000000" points="388.9817,-116.0908 393.7083,-106.6087 384.1002,-111.0737 388.9817,-116.0908"/>
</g>
<!-- Ultrix&#45;32 -->
<g id="node27" class="node">
<title>Ultrix&#45;32</title>
<ellipse fill="#b2dfee" stroke="#b2dfee" cx="308.7783" cy="-90" rx="43.0387" ry="18"/>
<text text-anchor="middle" x="308.7783" y="-85.8" font-family="Times,serif" font-size="14.00" fill="#000000">Ultrix&#45;32</text>
</g>
<!-- 4.2 BSD&#45;&gt;Ultrix&#45;32 -->
<g id="edge30" class="edge">
<title>4.2 BSD&#45;&gt;Ultrix&#45;32</title>
<path fill="none" stroke="#000000" d="M329.8569,-144.2022C326.6934,-136.0675 322.8755,-126.2501 319.3631,-117.2181"/>
<polygon fill="#000000" stroke="#000000" points="322.6036,-115.894 315.717,-107.8425 316.0796,-118.4312 322.6036,-115.894"/>
</g>
<!-- PWB 1.2&#45;&gt;PWB 2.0 -->
<g id="edge33" class="edge">
<title>PWB 1.2&#45;&gt;PWB 2.0</title>
<path fill="none" stroke="#000000" d="M634.9502,-579.0816C618.0253,-568.4851 595.091,-554.1262 576.4591,-542.461"/>
<polygon fill="#000000" stroke="#000000" points="578.3047,-539.4872 567.9715,-537.147 574.59,-545.4203 578.3047,-539.4872"/>
</g>
<!-- CB Unix 1 -->
<g id="node30" class="node">
<title>CB Unix 1</title>
<ellipse fill="#b2dfee" stroke="#b2dfee" cx="791.7783" cy="-522" rx="48.3686" ry="18"/>
<text text-anchor="middle" x="791.7783" y="-517.8" font-family="Times,serif" font-size="14.00" fill="#000000">CB Unix 1</text>
</g>
<!-- USG 1.0&#45;&gt;CB Unix 1 -->
<g id="edge34" class="edge">
<title>USG 1.0&#45;&gt;CB Unix 1</title>
<path fill="none" stroke="#000000" d="M768.4412,-576.2022C771.9436,-568.0675 776.1706,-558.2501 780.0594,-549.2181"/>
<polygon fill="#000000" stroke="#000000" points="783.3561,-550.4115 784.0961,-539.8425 776.9267,-547.6433 783.3561,-550.4115"/>
</g>
<!-- USG 2.0 -->
<g id="node31" class="node">
<title>USG 2.0</title>
<ellipse fill="#b2dfee" stroke="#b2dfee" cx="671.7783" cy="-522" rx="41.1266" ry="18"/>
<text text-anchor="middle" x="671.7783" y="-517.8" font-family="Times,serif" font-size="14.00" fill="#000000">USG 2.0</text>
</g>
<!-- USG 1.0&#45;&gt;USG 2.0 -->
<g id="edge35" class="edge">
<title>USG 1.0&#45;&gt;USG 2.0</title>
<path fill="none" stroke="#000000" d="M741.0263,-578.0209C728.8124,-568.14 712.9515,-555.3086 699.4915,-544.4197"/>
<polygon fill="#000000" stroke="#000000" points="701.4509,-541.5029 691.475,-537.9345 697.0482,-546.945 701.4509,-541.5029"/>
</g>
<!-- CB Unix 2 -->
<g id="node32" class="node">
<title>CB Unix 2</title>
<ellipse fill="#b2dfee" stroke="#b2dfee" cx="829.7783" cy="-450" rx="48.3686" ry="18"/>
<text text-anchor="middle" x="829.7783" y="-445.8" font-family="Times,serif" font-size="14.00" fill="#000000">CB Unix 2</text>
</g>
<!-- CB Unix 1&#45;&gt;CB Unix 2 -->
<g id="edge36" class="edge">
<title>CB Unix 1&#45;&gt;CB Unix 2</title>
<path fill="none" stroke="#000000" d="M801.1715,-504.2022C805.5105,-495.981 810.7566,-486.041 815.5651,-476.9301"/>
<polygon fill="#000000" stroke="#000000" points="818.7891,-478.3201 820.3614,-467.8425 812.5984,-475.0527 818.7891,-478.3201"/>
</g>
<!-- USG 3.0 -->
<g id="node36" class="node">
<title>USG 3.0</title>
<ellipse fill="#b2dfee" stroke="#b2dfee" cx="596.7783" cy="-450" rx="41.1266" ry="18"/>
<text text-anchor="middle" x="596.7783" y="-445.8" font-family="Times,serif" font-size="14.00" fill="#000000">USG 3.0</text>
</g>
<!-- USG 2.0&#45;&gt;USG 3.0 -->
<g id="edge40" class="edge">
<title>USG 2.0&#45;&gt;USG 3.0</title>
<path fill="none" stroke="#000000" d="M654.3833,-505.3008C644.6333,-495.9408 632.309,-484.1095 621.5643,-473.7945"/>
<polygon fill="#000000" stroke="#000000" points="623.7167,-471.0091 614.079,-466.6087 618.869,-476.0589 623.7167,-471.0091"/>
</g>
<!-- CB Unix 3 -->
<g id="node33" class="node">
<title>CB Unix 3</title>
<ellipse fill="#b2dfee" stroke="#b2dfee" cx="772.7783" cy="-378" rx="48.3686" ry="18"/>
<text text-anchor="middle" x="772.7783" y="-373.8" font-family="Times,serif" font-size="14.00" fill="#000000">CB Unix 3</text>
</g>
<!-- CB Unix 2&#45;&gt;CB Unix 3 -->
<g id="edge37" class="edge">
<title>CB Unix 2&#45;&gt;CB Unix 3</title>
<path fill="none" stroke="#000000" d="M815.9802,-432.5708C809.0488,-423.8153 800.5197,-413.0418 792.8761,-403.3867"/>
<polygon fill="#000000" stroke="#000000" points="795.4006,-400.9367 786.4493,-395.2687 789.9122,-405.2816 795.4006,-400.9367"/>
</g>
<!-- Unix/TS++ -->
<g id="node34" class="node">
<title>Unix/TS++</title>
<ellipse fill="#b2dfee" stroke="#b2dfee" cx="757.7783" cy="-306" rx="50.5917" ry="18"/>
<text text-anchor="middle" x="757.7783" y="-301.8" font-family="Times,serif" font-size="14.00" fill="#000000">Unix/TS++</text>
</g>
<!-- CB Unix 3&#45;&gt;Unix/TS++ -->
<g id="edge38" class="edge">
<title>CB Unix 3&#45;&gt;Unix/TS++</title>
<path fill="none" stroke="#000000" d="M768.9931,-359.8314C767.3889,-352.131 765.4813,-342.9743 763.6984,-334.4166"/>
<polygon fill="#000000" stroke="#000000" points="767.0804,-333.4892 761.6144,-324.4133 760.2276,-334.9169 767.0804,-333.4892"/>
</g>
<!-- PDP&#45;11 Sys V -->
<g id="node35" class="node">
<title>PDP&#45;11 Sys V</title>
<ellipse fill="#b2dfee" stroke="#b2dfee" cx="887.7783" cy="-306" rx="61.4584" ry="18"/>
<text text-anchor="middle" x="887.7783" y="-301.8" font-family="Times,serif" font-size="14.00" fill="#000000">PDP&#45;11 Sys V</text>
</g>
<!-- CB Unix 3&#45;&gt;PDP&#45;11 Sys V -->
<g id="edge39" class="edge">
<title>CB Unix 3&#45;&gt;PDP&#45;11 Sys V</title>
<path fill="none" stroke="#000000" d="M797.7316,-362.3771C813.8201,-352.3042 834.9775,-339.0578 852.7412,-327.9363"/>
<polygon fill="#000000" stroke="#000000" points="855.0577,-330.6153 861.6763,-322.3421 851.3431,-324.6822 855.0577,-330.6153"/>
</g>
<!-- CB Unix 3&#45;&gt;TS 4.0 -->
<g id="edge46" class="edge">
<title>CB Unix 3&#45;&gt;TS 4.0</title>
<path fill="none" stroke="#000000" d="M743.3118,-363.6894C727.4462,-354.4965 708.9011,-341.0732 697.7783,-324 685.7719,-305.5706 681.185,-280.9198 679.5094,-262.0769"/>
<polygon fill="#000000" stroke="#000000" points="682.996,-261.7585 678.8372,-252.014 676.0116,-262.2251 682.996,-261.7585"/>
</g>
<!-- Unix/TS++&#45;&gt;TS 4.0 -->
<g id="edge45" class="edge">
<title>Unix/TS++&#45;&gt;TS 4.0</title>
<path fill="none" stroke="#000000" d="M739.0564,-288.937C728.4536,-279.2738 715.0587,-267.0657 703.5901,-256.6133"/>
<polygon fill="#000000" stroke="#000000" points="705.7646,-253.8596 696.016,-249.7103 701.0493,-259.0332 705.7646,-253.8596"/>
</g>
<!-- USG 3.0&#45;&gt;Unix/TS 3.0 -->
<g id="edge41" class="edge">
<title>USG 3.0&#45;&gt;Unix/TS 3.0</title>
<path fill="none" stroke="#000000" d="M596.7783,-431.8314C596.7783,-424.131 596.7783,-414.9743 596.7783,-406.4166"/>
<polygon fill="#000000" stroke="#000000" points="600.2784,-406.4132 596.7783,-396.4133 593.2784,-406.4133 600.2784,-406.4132"/>
</g>
<!-- Unix/TS 1.0 -->
<g id="node37" class="node">
<title>Unix/TS 1.0</title>
<ellipse fill="#b2dfee" stroke="#b2dfee" cx="709.7783" cy="-450" rx="53.6729" ry="18"/>
<text text-anchor="middle" x="709.7783" y="-445.8" font-family="Times,serif" font-size="14.00" fill="#000000">Unix/TS 1.0</text>
</g>
<!-- Unix/TS 1.0&#45;&gt;Unix/TS 3.0 -->
<g id="edge43" class="edge">
<title>Unix/TS 1.0&#45;&gt;Unix/TS 3.0</title>
<path fill="none" stroke="#000000" d="M684.6999,-434.0209C668.8643,-423.9309 648.2,-410.7643 630.884,-399.731"/>
<polygon fill="#000000" stroke="#000000" points="632.4916,-396.6053 622.1773,-394.1834 628.7301,-402.5088 632.4916,-396.6053"/>
</g>
<!-- System V.0 -->
<g id="node39" class="node">
<title>System V.0</title>
<ellipse fill="#b2dfee" stroke="#b2dfee" cx="678.7783" cy="-162" rx="50.1677" ry="18"/>
<text text-anchor="middle" x="678.7783" y="-157.8" font-family="Times,serif" font-size="14.00" fill="#000000">System V.0</text>
</g>
<!-- TS 4.0&#45;&gt;System V.0 -->
<g id="edge47" class="edge">
<title>TS 4.0&#45;&gt;System V.0</title>
<path fill="none" stroke="#000000" d="M678.7783,-215.8314C678.7783,-208.131 678.7783,-198.9743 678.7783,-190.4166"/>
<polygon fill="#000000" stroke="#000000" points="682.2784,-190.4132 678.7783,-180.4133 675.2784,-190.4133 682.2784,-190.4132"/>
</g>
<!-- System V.2 -->
<g id="node40" class="node">
<title>System V.2</title>
<ellipse fill="#b2dfee" stroke="#b2dfee" cx="678.7783" cy="-90" rx="50.1677" ry="18"/>
<text text-anchor="middle" x="678.7783" y="-85.8" font-family="Times,serif" font-size="14.00" fill="#000000">System V.2</text>
</g>
<!-- System V.0&#45;&gt;System V.2 -->
<g id="edge48" class="edge">
<title>System V.0&#45;&gt;System V.2</title>
<path fill="none" stroke="#000000" d="M678.7783,-143.8314C678.7783,-136.131 678.7783,-126.9743 678.7783,-118.4166"/>
<polygon fill="#000000" stroke="#000000" points="682.2784,-118.4132 678.7783,-108.4133 675.2784,-118.4133 682.2784,-118.4132"/>
</g>
<!-- System V.3 -->
<g id="node41" class="node">
<title>System V.3</title>
<ellipse fill="#b2dfee" stroke="#b2dfee" cx="678.7783" cy="-18" rx="50.1677" ry="18"/>
<text text-anchor="middle" x="678.7783" y="-13.8" font-family="Times,serif" font-size="14.00" fill="#000000">System V.3</text>
</g>
<!-- System V.2&#45;&gt;System V.3 -->
<g id="edge49" class="edge">
<title>System V.2&#45;&gt;System V.3</title>
<path fill="none" stroke="#000000" d="M678.7783,-71.8314C678.7783,-64.131 678.7783,-54.9743 678.7783,-46.4166"/>
<polygon fill="#000000" stroke="#000000" points="682.2784,-46.4132 678.7783,-36.4133 675.2784,-46.4133 682.2784,-46.4132"/>
</g>
</g>
</svg>
